#!OML:ASF I:\golf\golf\golf 2\Subject 1\2002-09-07\Subject1.ASF
:FULLY-SPECIFIED
:DEGREES
308
root 0.792401 15.6456 -3.59036 59.8319 18.8087 5.86716
lowerback 29.5752 6.05026 8.01492
upperback 15.7083 9.67182 9.54082
thorax 1.31953 4.69613 3.40545
lowerneck -14.5565 -10.7998 -3.23392
upperneck 4.07774 -13.6588 -4.54603
head 3.80622 -7.09631 -2.03236
rclavicle -1.27222e-014 0
rhumerus 60.8472 -19.4825 -64.2751
rradius 24.4609
rwrist -2.38831
rhand -51.1571 33.747
rfingers 7.12502
rthumb -23.6993 5.18812
lclavicle -1.27222e-014 0
lhumerus -21.9052 -57.1019 85.8875
lradius 88.1853
lwrist -24.4889
lhand -54.7463 26.5647
lfingers 7.12502
lthumb -27.1375 54.6337
rfemur -104.097 -22.3522 37.7327
rtibia 69.591
rfoot -18.9157 -10.6424
rtoes -16.1289
lfemur -102.702 -2.98734 -30.3595
ltibia 56.2823
lfoot -5.0052 -23.1837
ltoes 8.94962
309
root 0.797997 15.6415 -3.58318 60.0904 18.8667 5.8999
lowerback 29.2884 6.12512 8.05448
upperback 15.6556 9.75134 9.62841
thorax 1.37569 4.73476 3.48078
lowerneck -14.4493 -10.9089 -3.49445
upperneck 4.10281 -13.7726 -4.36768
head 3.82675 -7.14701 -1.93734
rclavicle 1.11319e-013 3.97569e-014
rhumerus 60.5779 -19.5599 -63.7615
rradius 24.4992
rwrist -2.58175
rhand -51.312 33.8333
rfingers 7.12502
rthumb -23.8478 5.29367
lclavicle 1.11319e-013 3.97569e-014
lhumerus -21.7272 -57.419 86.0211
lradius 87.9084
lwrist -24.7651
lhand -54.7383 27.1863
lfingers 7.12502
lthumb -27.1298 55.2565
rfemur -104.321 -22.3218 37.8127
rtibia 69.5263
rfoot -18.8892 -10.6328
rtoes -15.9599
lfemur -102.91 -3.09091 -30.3218
ltibia 56.2425
lfoot -4.99686 -23.1811
ltoes 8.97025
310
root 0.800238 15.6435 -3.57266 60.1871 18.7997 5.86057
lowerback 29.1773 6.22062 7.9543
upperback 15.6737 9.82944 9.63916
thorax 1.42432 4.76775 3.53701
lowerneck -14.8668 -10.9651 -4.03543
upperneck 4.95224 -13.7202 -3.89797
head 3.81538 -7.12845 -1.6007
rclavicle 4.77083e-014 3.33958e-014
rhumerus 60.5114 -19.6194 -63.5985
rradius 24.4622
rwrist -2.63328
rhand -51.384 33.609
rfingers 7.12502
rthumb -23.9168 5.07847
lclavicle 4.77083e-014 3.33958e-014
lhumerus -21.4796 -57.6575 85.89
lradius 87.7528
lwrist -24.9493
lhand -54.3575 27.1887
lfingers 7.12502
lthumb -26.7655 55.3151
rfemur -104.306 -22.2147 37.7379
rtibia 69.4193
rfoot -18.9406 -10.6141
rtoes -15.422
lfemur -102.967 -3.02979 -30.3857
ltibia 56.1965
lfoot -5.00938 -23.1915
ltoes 9.0744
311
root 0.799893 15.6621 -3.55804 60.0447 18.6797 5.7366
lowerback 29.3525 6.3325 7.79273
upperback 15.7191 9.93965 9.6447
thorax 1.36559 4.80847 3.58557
lowerneck -15.0085 -10.9717 -4.0703
upperneck 5.01218 -13.7199 -3.78975
head 3.86552 -7.12507 -1.57531
rclavicle -1.24042e-013 2.8625e-014
rhumerus 60.534 -19.6512 -63.5585
rradius 24.3222
rwrist -2.63319
rhand -51.2829 33.5296
rfingers 7.12502
rthumb -23.82 4.98635
lclavicle -1.24042e-013 2.8625e-014
lhumerus -21.3778 -57.7886 85.8051
lradius 87.9115
lwrist -24.5584
lhand -53.6671 26.5712
lfingers 7.12502
lthumb -26.1046 54.7971
rfemur -103.926 -22.07 37.544
rtibia 69.2432
rfoot -18.9299 -10.7031
rtoes -15.6342
lfemur -102.762 -2.81588 -30.4516
ltibia 56.1107
lfoot -5.04684 -23.2235
ltoes 9.1361
312
root 0.796564 15.6954 -3.53964 59.706 18.559 5.54714
lowerback 29.7819 6.45412 7.59312
upperback 15.7702 10.0798 9.68527
thorax 1.18596 4.8552 3.65854
lowerneck -15.0039 -10.9316 -3.92784
upperneck 4.88874 -13.6931 -3.90146
head 3.80942 -7.11517 -1.61998
rclavicle 2.54444e-014 -4.6118e-014
rhumerus 60.529 -19.6386 -63.5424
rradius 24.2604
rwrist -2.60659
rhand -51.1717 33.5271
rfingers 7.12502
rthumb -23.7133 4.96995
lclavicle 2.54444e-014 -4.6118e-014
lhumerus -21.41 -57.7935 85.7922
lradius 88.1665
lwrist -23.9531
lhand -53.476 25.7402
lfingers 7.12502
lthumb -25.9217 53.9929
rfemur -103.28 -21.9094 37.3096
rtibia 69.0512
rfoot -18.9458 -10.8281
rtoes -16.0734
lfemur -102.32 -2.48811 -30.4888
ltibia 55.9758
lfoot -5.09999 -23.2757
ltoes 8.69737
313
root 0.79936 15.7148 -3.5273 59.6623 18.5827 5.58461
lowerback 29.8859 6.43367 7.56018
upperback 15.7735 10.0612 9.71191
thorax 1.1328 4.84188 3.69989
lowerneck -14.8506 -10.9207 -3.69585
upperneck 4.59693 -13.7284 -4.19114
head 3.65954 -7.14162 -1.71752
rclavicle -6.99722e-014 -1.59028e-014
rhumerus 60.4728 -19.6038 -63.5154
rradius 24.3017
rwrist -2.57739
rhand -51.0294 33.3256
rfingers 7.12502
rthumb -23.5768 4.75089
lclavicle -6.99722e-014 -1.59028e-014
lhumerus -21.4728 -57.7505 85.8562
lradius 88.2251
lwrist -23.795
lhand -53.8888 25.1341
lfingers 7.12502
lthumb -26.3168 53.3284
rfemur -103.045 -21.9348 37.1625
rtibia 68.8893
rfoot -18.9495 -10.857
rtoes -15.1529
lfemur -102.078 -2.49366 -30.5046
ltibia 55.7986
lfoot -5.04254 -23.2945
ltoes 8.288
314
root 0.817208 15.6967 -3.53126 60.2579 18.9338 5.95269
lowerback 29.2989 6.12959 7.95046
upperback 15.6453 9.73837 9.63083
thorax 1.33891 4.72236 3.5388
lowerneck -14.6122 -10.8667 -3.17389
upperneck 3.80926 -13.7799 -4.51495
head 3.71579 -7.15539 -2.0297
rclavicle 1.59028e-013 9.54166e-015
rhumerus 60.5622 -19.5966 -63.8588
rradius 24.2895
rwrist -2.23593
rhand -50.6633 32.7294
rfingers 7.12502
rthumb -23.2256 4.10995
lclavicle 1.59028e-013 9.54166e-015
lhumerus -21.5231 -57.6825 85.8271
lradius 88.2423
lwrist -23.7407
lhand -53.9572 25.0524
lfingers 7.12502
lthumb -26.3824 53.2369
rfemur -103.739 -22.2631 37.3946
rtibia 68.8086
rfoot -18.7585 -10.6439
rtoes -12.4651
lfemur -102.447 -3.13772 -30.3085
ltibia 55.6172
lfoot -4.87537 -23.2002
ltoes 7.89025
315
root 0.814746 15.7176 -3.51973 60.1324 18.9486 5.82822
lowerback 29.5021 6.11327 7.83985
upperback 15.6481 9.7111 9.55097
thorax 1.24589 4.70376 3.49725
lowerneck -14.7967 -10.7595 -2.96099
upperneck 3.84114 -13.6692 -4.44668
head 3.75376 -7.09636 -2.04806
rclavicle -2.54444e-014 -1.59028e-014
rhumerus 60.7325 -19.5126 -64.4446
rradius 24.2749
rwrist -1.7985
rhand -50.2885 31.9591
rfingers 7.12502
rthumb -22.866 3.29473
lclavicle -2.54444e-014 -1.59028e-014
lhumerus -21.5517 -57.5175 85.583
lradius 88.2677
lwrist -23.6665
lhand -53.9778 24.9367
lfingers 7.12502
lthumb -26.4021 53.1183
rfemur -103.406 -22.1561 37.3464
rtibia 68.6523
rfoot -18.6627 -10.4699
rtoes -10.5354
lfemur -102.243 -2.99502 -30.2198
ltibia 55.4669
lfoot -4.89503 -23.2148
ltoes 7.67286
316
root 0.806463 15.7553 -3.49919 59.6427 18.7827 5.5976
lowerback 30.0706 6.2583 7.55786
upperback 15.7382 9.86799 9.55676
thorax 1.04258 4.75476 3.56312
lowerneck -15.1444 -10.7451 -3.2636
upperneck 4.55429 -13.5748 -4.04224
head 3.6749 -7.0544 -1.73773
rclavicle 2.22639e-014 -1.09729e-013
rhumerus 60.7243 -19.4971 -64.6207
rradius 24.3488
rwrist -1.67612
rhand -49.9645 30.9203
rfingers 7.12502
rthumb -22.5551 2.21787
lclavicle 2.22639e-014 -1.09729e-013
lhumerus -21.4688 -57.4881 85.4488
lradius 88.15
lwrist -23.6894
lhand -54.0827 24.8167
lfingers 7.12502
lthumb -26.5025 52.9831
rfemur -102.563 -21.9884 37.0972
rtibia 68.4757
rfoot -18.7086 -10.6555
rtoes -12.5526
lfemur -101.666 -2.57662 -30.2822
ltibia 55.3415
lfoot -5.00934 -23.2859
ltoes 7.66365
317
root 0.815646 15.742 -3.4979 59.9886 18.8737 5.73618
lowerback 29.6599 6.21009 7.71565
upperback 15.6974 9.80824 9.53955
thorax 1.21057 4.74217 3.51364
lowerneck -15.2542 -10.7827 -3.36276
upperneck 4.62015 -13.611 -3.86243
head 3.73047 -7.06599 -1.68349
rclavicle -8.26944e-014 -2.70347e-014
rhumerus 60.692 -19.6498 -64.6637
rradius 24.3715
rwrist -1.44322
rhand -49.5664 29.6774
rfingers 7.12502
rthumb -22.1728 0.928987
lclavicle -8.26944e-014 -2.70347e-014
lhumerus -21.1984 -57.591 85.4096
lradius 88.0917
lwrist -23.1696
lhand -54.2043 24.8718
lfingers 7.12502
lthumb -26.6189 53.0206
rfemur -102.952 -22.0896 37.2622
rtibia 68.4274
rfoot -18.7008 -10.8917
rtoes -15.3334
lfemur -101.93 -2.84176 -30.2398
ltibia 55.2511
lfoot -4.97312 -23.2439
ltoes 7.44754
318
root 0.822696 15.7326 -3.4974 60.2914 18.9484 5.9081
lowerback 29.3879 6.1121 7.83059
upperback 15.6297 9.69446 9.49091
thorax 1.28467 4.70015 3.45005
lowerneck -15.2631 -10.7814 -3.14286
upperneck 4.45883 -13.6405 -4.1696
head 3.64578 -7.09357 -1.79941
rclavicle 1.27222e-014 -1.27222e-014
rhumerus 60.7188 -19.6967 -64.9137
rradius 24.334
rwrist -1.13885
rhand -49.3081 29.0174
rfingers 7.12502
rthumb -21.9249 0.239731
lclavicle 1.27222e-014 -1.27222e-014
lhumerus -21.0603 -57.5597 85.416
lradius 88.2002
lwrist -22.3503
lhand -54.4411 25.3744
lfingers 7.12502
lthumb -26.8455 53.4886
rfemur -103.29 -22.2123 37.3522
rtibia 68.3632
rfoot -18.701 -10.9278
rtoes -15.9072
lfemur -102.109 -3.10165 -30.2341
ltibia 55.139
lfoot -4.84442 -23.2158
ltoes 7.60459
319
root 0.826758 15.7252 -3.49659 60.5278 19.0704 6.00587
lowerback 29.1674 6.01749 7.96716
upperback 15.5657 9.5951 9.46468
thorax 1.33989 4.66396 3.39069
lowerneck -15.1541 -10.7569 -2.90564
upperneck 3.87098 -13.6677 -4.33278
head 3.8384 -7.09391 -2.04908
rclavicle 9.22361e-014 1.43125e-014
rhumerus 60.7322 -19.6648 -65.1158
rradius 24.3087
rwrist -1.05894
rhand -49.2196 28.6646
rfingers 7.12502
rthumb -21.8399 -0.122919
lclavicle 9.22361e-014 1.43125e-014
lhumerus -20.9732 -57.5139 85.404
lradius 88.1628
lwrist -22.0715
lhand -54.6304 25.8147
lfingers 7.12502
lthumb -27.0266 53.901
rfemur -103.556 -22.2787 37.48
rtibia 68.3363
rfoot -18.6289 -10.9403
rtoes -16.0031
lfemur -102.264 -3.298 -30.1173
ltibia 55.0403
lfoot -4.70485 -23.1657
ltoes 7.91024
320
root 0.815334 15.7637 -3.47879 59.9719 18.97 5.731
lowerback 29.7767 6.19599 7.76688
upperback 15.638 9.8236 9.5522
thorax 1.09614 4.74798 3.47806
lowerneck -15.1083 -10.8097 -3.12486
upperneck 3.81929 -13.721 -4.02756
head 3.85044 -7.10839 -1.9152
rclavicle 6.36111e-014 -4.29375e-014
rhumerus 60.6951 -19.7408 -65.1655
rradius 24.2359
rwrist -0.978914
rhand -49.0918 28.1704
rfingers 7.12502
rthumb -21.7172 -0.631452
lclavicle 6.36111e-014 -4.29375e-014
lhumerus -20.6743 -57.5938 85.2811
lradius 87.8967
lwrist -22.002
lhand -54.5798 25.6648
lfingers 7.12502
lthumb -26.9781 53.7585
rfemur -102.703 -22.1132 37.2974
rtibia 68.1774
rfoot -18.7209 -11.0073
rtoes -16.0563
lfemur -101.646 -2.86566 -30.0389
ltibia 54.92
lfoot -4.82066 -23.1474
ltoes 7.92357
